<mxfile host="Electron" agent="Mozilla/5.0 (Windows NT 10.0; Win64; x64) AppleWebKit/537.36 (KHTML, like Gecko) draw.io/27.0.2 Chrome/134.0.6998.205 Electron/35.3.0 Safari/537.36" version="27.0.2">
  <diagram name="Página-1" id="Ot_-Mr4bFp7TJ5_a9pxv">
    <mxGraphModel dx="1410" dy="833" grid="0" gridSize="10" guides="1" tooltips="1" connect="1" arrows="1" fold="1" page="1" pageScale="1" pageWidth="827" pageHeight="1169" background="light-dark(#FFFFFF,#FFFFFF)" math="0" shadow="0">
      <root>
        <mxCell id="0" />
        <mxCell id="1" parent="0" />
        <mxCell id="YvgkLhhPr4zb0zmvWF8X-1" value="&lt;span&gt;ADMINISTRADOR&lt;/span&gt;" style="swimlane;whiteSpace=wrap;html=1;fillColor=#008a00;fontColor=#ffffff;strokeColor=#005700;opacity=70;swimlaneFillColor=light-dark(#000000,#FFFFFF);" parent="1" vertex="1">
          <mxGeometry x="26" y="182" width="780" height="443" as="geometry" />
        </mxCell>
        <mxCell id="YvgkLhhPr4zb0zmvWF8X-4" value="Buscar Producto" style="rounded=1;whiteSpace=wrap;html=1;fillColor=#647687;fontColor=#ffffff;strokeColor=#314354;" parent="YvgkLhhPr4zb0zmvWF8X-1" vertex="1">
          <mxGeometry x="20" y="83" width="130" height="30" as="geometry" />
        </mxCell>
        <mxCell id="YvgkLhhPr4zb0zmvWF8X-6" value="Listar Todos" style="rounded=1;whiteSpace=wrap;html=1;fillColor=#0050ef;strokeColor=#001DBC;fillStyle=auto;fontColor=#ffffff;" parent="YvgkLhhPr4zb0zmvWF8X-1" vertex="1">
          <mxGeometry x="170" y="83" width="130" height="30" as="geometry" />
        </mxCell>
        <mxCell id="YvgkLhhPr4zb0zmvWF8X-7" value="Registrar venta" style="rounded=1;whiteSpace=wrap;html=1;fillColor=#e51400;fontColor=#ffffff;strokeColor=#B20000;" parent="YvgkLhhPr4zb0zmvWF8X-1" vertex="1">
          <mxGeometry x="480" y="83" width="130" height="30" as="geometry" />
        </mxCell>
        <mxCell id="YvgkLhhPr4zb0zmvWF8X-12" value="Gestionar" style="rounded=1;whiteSpace=wrap;html=1;fillColor=#e3c800;fontColor=#000000;strokeColor=#B09500;" parent="YvgkLhhPr4zb0zmvWF8X-1" vertex="1">
          <mxGeometry x="630" y="83" width="130" height="30" as="geometry" />
        </mxCell>
        <mxCell id="YvgkLhhPr4zb0zmvWF8X-14" value="Ver Movimientos" style="rounded=1;whiteSpace=wrap;html=1;fillColor=#008a00;fontColor=#ffffff;strokeColor=#005700;" parent="YvgkLhhPr4zb0zmvWF8X-1" vertex="1">
          <mxGeometry x="330" y="83" width="130" height="30" as="geometry" />
        </mxCell>
        <mxCell id="YvgkLhhPr4zb0zmvWF8X-15" style="edgeStyle=orthogonalEdgeStyle;rounded=0;orthogonalLoop=1;jettySize=auto;html=1;exitX=0.5;exitY=1;exitDx=0;exitDy=0;" parent="YvgkLhhPr4zb0zmvWF8X-1" source="YvgkLhhPr4zb0zmvWF8X-6" target="YvgkLhhPr4zb0zmvWF8X-6" edge="1">
          <mxGeometry relative="1" as="geometry" />
        </mxCell>
        <mxCell id="xNw9vJUhxpTD5pzoMvH8-2" value="Cerrar Sesiòn" style="rounded=1;whiteSpace=wrap;html=1;fillColor=#6a00ff;fontColor=#ffffff;strokeColor=#3700CC;" parent="YvgkLhhPr4zb0zmvWF8X-1" vertex="1">
          <mxGeometry x="652" y="34" width="115" height="31" as="geometry" />
        </mxCell>
        <mxCell id="xNw9vJUhxpTD5pzoMvH8-75" value="" style="edgeStyle=orthogonalEdgeStyle;rounded=0;orthogonalLoop=1;jettySize=auto;html=1;" parent="YvgkLhhPr4zb0zmvWF8X-1" source="xNw9vJUhxpTD5pzoMvH8-51" target="YvgkLhhPr4zb0zmvWF8X-6" edge="1">
          <mxGeometry relative="1" as="geometry" />
        </mxCell>
        <mxCell id="xNw9vJUhxpTD5pzoMvH8-51" value="Listado de Productos&amp;nbsp; &amp;nbsp; &amp;nbsp; &amp;nbsp; &amp;nbsp; &amp;nbsp;peso&amp;nbsp; &amp;nbsp; &amp;nbsp; &amp;nbsp; &amp;nbsp; &amp;nbsp;" style="shape=table;startSize=30;container=1;collapsible=0;childLayout=tableLayout;fixedRows=1;rowLines=0;fontStyle=0;strokeColor=#005700;fontSize=16;labelBackgroundColor=none;labelBorderColor=none;textShadow=0;html=1;fillColor=#008a00;fontColor=#ffffff;" parent="YvgkLhhPr4zb0zmvWF8X-1" vertex="1">
          <mxGeometry x="114" y="228" width="319" height="120" as="geometry" />
        </mxCell>
        <mxCell id="xNw9vJUhxpTD5pzoMvH8-52" value="" style="shape=tableRow;horizontal=0;startSize=0;swimlaneHead=0;swimlaneBody=0;top=0;left=0;bottom=0;right=0;collapsible=0;dropTarget=0;fillColor=none;points=[[0,0.5],[1,0.5]];portConstraint=eastwest;strokeColor=inherit;fontSize=16;" parent="xNw9vJUhxpTD5pzoMvH8-51" vertex="1">
          <mxGeometry y="30" width="319" height="30" as="geometry" />
        </mxCell>
        <mxCell id="xNw9vJUhxpTD5pzoMvH8-53" value="&lt;font style=&quot;color: rgb(0, 0, 0);&quot;&gt;Lechuga&lt;/font&gt;" style="shape=partialRectangle;html=1;whiteSpace=wrap;connectable=0;fillColor=none;top=0;left=0;bottom=0;right=0;overflow=hidden;pointerEvents=1;strokeColor=inherit;fontSize=16;" parent="xNw9vJUhxpTD5pzoMvH8-52" vertex="1">
          <mxGeometry width="154" height="30" as="geometry">
            <mxRectangle width="154" height="30" as="alternateBounds" />
          </mxGeometry>
        </mxCell>
        <mxCell id="xNw9vJUhxpTD5pzoMvH8-54" value="&lt;font style=&quot;color: rgb(0, 0, 0);&quot;&gt;120kg&lt;/font&gt;" style="shape=partialRectangle;html=1;whiteSpace=wrap;connectable=0;fillColor=none;top=0;left=0;bottom=0;right=0;align=left;spacingLeft=6;overflow=hidden;strokeColor=inherit;fontSize=16;" parent="xNw9vJUhxpTD5pzoMvH8-52" vertex="1">
          <mxGeometry x="154" width="165" height="30" as="geometry">
            <mxRectangle width="165" height="30" as="alternateBounds" />
          </mxGeometry>
        </mxCell>
        <mxCell id="xNw9vJUhxpTD5pzoMvH8-55" value="" style="shape=tableRow;horizontal=0;startSize=0;swimlaneHead=0;swimlaneBody=0;top=0;left=0;bottom=0;right=0;collapsible=0;dropTarget=0;fillColor=none;points=[[0,0.5],[1,0.5]];portConstraint=eastwest;strokeColor=inherit;fontSize=16;" parent="xNw9vJUhxpTD5pzoMvH8-51" vertex="1">
          <mxGeometry y="60" width="319" height="30" as="geometry" />
        </mxCell>
        <mxCell id="xNw9vJUhxpTD5pzoMvH8-56" value="&lt;font style=&quot;color: rgb(0, 0, 0);&quot;&gt;Tomate Cherry&lt;/font&gt;" style="shape=partialRectangle;html=1;whiteSpace=wrap;connectable=0;fillColor=#99CCFF;top=0;left=0;bottom=0;right=0;overflow=hidden;strokeColor=#000000;fontSize=16;fontColor=#ffffff;" parent="xNw9vJUhxpTD5pzoMvH8-55" vertex="1">
          <mxGeometry width="154" height="30" as="geometry">
            <mxRectangle width="154" height="30" as="alternateBounds" />
          </mxGeometry>
        </mxCell>
        <mxCell id="xNw9vJUhxpTD5pzoMvH8-57" value="40kg" style="shape=partialRectangle;html=1;whiteSpace=wrap;connectable=0;fillColor=none;top=0;left=0;bottom=0;right=0;align=left;spacingLeft=6;overflow=hidden;strokeColor=#000000;fontSize=16;fontColor=#000000;" parent="xNw9vJUhxpTD5pzoMvH8-55" vertex="1">
          <mxGeometry x="154" width="165" height="30" as="geometry">
            <mxRectangle width="165" height="30" as="alternateBounds" />
          </mxGeometry>
        </mxCell>
        <mxCell id="xNw9vJUhxpTD5pzoMvH8-58" value="" style="shape=tableRow;horizontal=0;startSize=0;swimlaneHead=0;swimlaneBody=0;top=0;left=0;bottom=0;right=0;collapsible=0;dropTarget=0;fillColor=none;points=[[0,0.5],[1,0.5]];portConstraint=eastwest;strokeColor=inherit;fontSize=16;" parent="xNw9vJUhxpTD5pzoMvH8-51" vertex="1">
          <mxGeometry y="90" width="319" height="30" as="geometry" />
        </mxCell>
        <mxCell id="xNw9vJUhxpTD5pzoMvH8-59" value="&lt;font style=&quot;color: rgb(0, 0, 0);&quot;&gt;Zanahoria&lt;/font&gt;" style="shape=partialRectangle;html=1;whiteSpace=wrap;connectable=0;fillColor=none;top=0;left=0;bottom=0;right=0;overflow=hidden;strokeColor=inherit;fontSize=16;" parent="xNw9vJUhxpTD5pzoMvH8-58" vertex="1">
          <mxGeometry width="154" height="30" as="geometry">
            <mxRectangle width="154" height="30" as="alternateBounds" />
          </mxGeometry>
        </mxCell>
        <mxCell id="xNw9vJUhxpTD5pzoMvH8-60" value="&lt;font style=&quot;color: rgb(0, 0, 0);&quot;&gt;75kg&lt;/font&gt;" style="shape=partialRectangle;html=1;whiteSpace=wrap;connectable=0;fillColor=none;top=0;left=0;bottom=0;right=0;align=left;spacingLeft=6;overflow=hidden;strokeColor=inherit;fontSize=16;" parent="xNw9vJUhxpTD5pzoMvH8-58" vertex="1">
          <mxGeometry x="154" width="165" height="30" as="geometry">
            <mxRectangle width="165" height="30" as="alternateBounds" />
          </mxGeometry>
        </mxCell>
        <mxCell id="xNw9vJUhxpTD5pzoMvH8-62" value="Admin" style="rounded=1;whiteSpace=wrap;html=1;fillColor=#6a00ff;fontColor=#ffffff;strokeColor=#3700CC;" parent="YvgkLhhPr4zb0zmvWF8X-1" vertex="1">
          <mxGeometry x="533" y="34" width="115" height="32" as="geometry" />
        </mxCell>
        <mxCell id="xNw9vJUhxpTD5pzoMvH8-63" value="Categoria" style="swimlane;fontStyle=0;childLayout=stackLayout;horizontal=1;startSize=30;horizontalStack=0;resizeParent=1;resizeParentMax=0;resizeLast=0;collapsible=1;marginBottom=0;whiteSpace=wrap;html=1;fillColor=#008a00;fontColor=#ffffff;strokeColor=#005700;" parent="YvgkLhhPr4zb0zmvWF8X-1" vertex="1">
          <mxGeometry x="433" y="228" width="140" height="120" as="geometry" />
        </mxCell>
        <mxCell id="xNw9vJUhxpTD5pzoMvH8-64" value="&lt;font style=&quot;color: rgb(0, 0, 0);&quot;&gt;vegetales&lt;/font&gt;" style="text;strokeColor=none;fillColor=none;align=left;verticalAlign=middle;spacingLeft=4;spacingRight=4;overflow=hidden;points=[[0,0.5],[1,0.5]];portConstraint=eastwest;rotatable=0;whiteSpace=wrap;html=1;" parent="xNw9vJUhxpTD5pzoMvH8-63" vertex="1">
          <mxGeometry y="30" width="140" height="30" as="geometry" />
        </mxCell>
        <mxCell id="xNw9vJUhxpTD5pzoMvH8-65" value="&lt;font style=&quot;color: rgb(0, 0, 0);&quot;&gt;vegetales&lt;/font&gt;" style="text;strokeColor=none;fillColor=none;align=left;verticalAlign=middle;spacingLeft=4;spacingRight=4;overflow=hidden;points=[[0,0.5],[1,0.5]];portConstraint=eastwest;rotatable=0;whiteSpace=wrap;html=1;" parent="xNw9vJUhxpTD5pzoMvH8-63" vertex="1">
          <mxGeometry y="60" width="140" height="30" as="geometry" />
        </mxCell>
        <mxCell id="xNw9vJUhxpTD5pzoMvH8-66" value="&lt;font style=&quot;color: rgb(0, 0, 0);&quot;&gt;vegetales&lt;/font&gt;" style="text;strokeColor=none;fillColor=none;align=left;verticalAlign=middle;spacingLeft=4;spacingRight=4;overflow=hidden;points=[[0,0.5],[1,0.5]];portConstraint=eastwest;rotatable=0;whiteSpace=wrap;html=1;" parent="xNw9vJUhxpTD5pzoMvH8-63" vertex="1">
          <mxGeometry y="90" width="140" height="30" as="geometry" />
        </mxCell>
        <mxCell id="xNw9vJUhxpTD5pzoMvH8-67" value="Movimiento" style="swimlane;fontStyle=0;childLayout=stackLayout;horizontal=1;startSize=30;horizontalStack=0;resizeParent=1;resizeParentMax=0;resizeLast=0;collapsible=1;marginBottom=0;whiteSpace=wrap;html=1;fillColor=#008a00;fontColor=#ffffff;strokeColor=#005700;" parent="YvgkLhhPr4zb0zmvWF8X-1" vertex="1">
          <mxGeometry x="573" y="228" width="140" height="120" as="geometry" />
        </mxCell>
        <mxCell id="xNw9vJUhxpTD5pzoMvH8-68" value="&lt;font style=&quot;color: rgb(0, 0, 0);&quot;&gt;Item 1&lt;/font&gt;" style="text;strokeColor=none;fillColor=none;align=left;verticalAlign=middle;spacingLeft=4;spacingRight=4;overflow=hidden;points=[[0,0.5],[1,0.5]];portConstraint=eastwest;rotatable=0;whiteSpace=wrap;html=1;" parent="xNw9vJUhxpTD5pzoMvH8-67" vertex="1">
          <mxGeometry y="30" width="140" height="30" as="geometry" />
        </mxCell>
        <mxCell id="xNw9vJUhxpTD5pzoMvH8-69" value="&lt;font style=&quot;color: rgb(0, 0, 0);&quot;&gt;Item 2&lt;/font&gt;" style="text;strokeColor=none;fillColor=none;align=left;verticalAlign=middle;spacingLeft=4;spacingRight=4;overflow=hidden;points=[[0,0.5],[1,0.5]];portConstraint=eastwest;rotatable=0;whiteSpace=wrap;html=1;" parent="xNw9vJUhxpTD5pzoMvH8-67" vertex="1">
          <mxGeometry y="60" width="140" height="30" as="geometry" />
        </mxCell>
        <mxCell id="xNw9vJUhxpTD5pzoMvH8-70" value="&lt;font style=&quot;color: rgb(0, 0, 0);&quot;&gt;Item 3&lt;/font&gt;" style="text;strokeColor=none;fillColor=none;align=left;verticalAlign=middle;spacingLeft=4;spacingRight=4;overflow=hidden;points=[[0,0.5],[1,0.5]];portConstraint=eastwest;rotatable=0;whiteSpace=wrap;html=1;" parent="xNw9vJUhxpTD5pzoMvH8-67" vertex="1">
          <mxGeometry y="90" width="140" height="30" as="geometry" />
        </mxCell>
        <mxCell id="xNw9vJUhxpTD5pzoMvH8-71" value="ID&lt;div&gt;&lt;br&gt;&lt;/div&gt;" style="swimlane;fontStyle=0;childLayout=stackLayout;horizontal=1;startSize=30;horizontalStack=0;resizeParent=1;resizeParentMax=0;resizeLast=0;collapsible=1;marginBottom=0;whiteSpace=wrap;html=1;fillColor=#008a00;fontColor=#FFFFFF;strokeColor=#005700;" parent="YvgkLhhPr4zb0zmvWF8X-1" vertex="1">
          <mxGeometry x="44" y="228" width="70" height="120" as="geometry" />
        </mxCell>
        <mxCell id="xNw9vJUhxpTD5pzoMvH8-72" value="01&lt;div&gt;&lt;br&gt;&lt;/div&gt;" style="text;strokeColor=none;fillColor=none;align=left;verticalAlign=middle;spacingLeft=4;spacingRight=4;overflow=hidden;points=[[0,0.5],[1,0.5]];portConstraint=eastwest;rotatable=0;whiteSpace=wrap;html=1;fontColor=#000000;" parent="xNw9vJUhxpTD5pzoMvH8-71" vertex="1">
          <mxGeometry y="30" width="70" height="30" as="geometry" />
        </mxCell>
        <mxCell id="xNw9vJUhxpTD5pzoMvH8-73" value="&lt;font style=&quot;color: rgb(0, 0, 0);&quot;&gt;02&lt;/font&gt;" style="text;strokeColor=#005700;fillColor=#99CCFF;align=left;verticalAlign=middle;spacingLeft=4;spacingRight=4;overflow=hidden;points=[[0,0.5],[1,0.5]];portConstraint=eastwest;rotatable=0;whiteSpace=wrap;html=1;fontColor=#FFFFFF;" parent="xNw9vJUhxpTD5pzoMvH8-71" vertex="1">
          <mxGeometry y="60" width="70" height="30" as="geometry" />
        </mxCell>
        <mxCell id="xNw9vJUhxpTD5pzoMvH8-74" value="&lt;font style=&quot;color: rgb(0, 0, 0);&quot;&gt;03&lt;/font&gt;" style="text;strokeColor=none;fillColor=none;align=left;verticalAlign=middle;spacingLeft=4;spacingRight=4;overflow=hidden;points=[[0,0.5],[1,0.5]];portConstraint=eastwest;rotatable=0;whiteSpace=wrap;html=1;" parent="xNw9vJUhxpTD5pzoMvH8-71" vertex="1">
          <mxGeometry y="90" width="70" height="30" as="geometry" />
        </mxCell>
      </root>
    </mxGraphModel>
  </diagram>
</mxfile>
